<?xml version="1.0" encoding="iso-8859-1"?>
<!-- Generator: Adobe Illustrator 19.0.0, SVG Export Plug-In . SVG Version: 6.00 Build 0)  -->
<svg xmlns="http://www.w3.org/2000/svg" xmlns:xlink="http://www.w3.org/1999/xlink" version="1.1" id="Layer_1" x="0px" y="0px" viewBox="0 0 502 502" style="enable-background:new 0 0 502 502;" xml:space="preserve" width="25" height="25">
<g>
	<g>
		<path style="fill:#E6E6E6;" d="M445.355,274.323C445.355,407.423,358.339,492,251,492S56.645,407.423,56.645,274.323    S143.661,10,251,10S445.355,141.222,445.355,274.323z"/>
		<g>
			<path style="fill:#FBB03B;" d="M367.42,293.823c0,71.612-52.402,126.208-116.699,126.208S134.58,365.435,134.58,293.823     S186.424,160.7,250.721,160.7S367.42,222.211,367.42,293.823z"/>
		</g>
	</g>
	<g>
		<path d="M396.579,86.452c-18.861-26.514-40.618-47.499-64.667-62.374C306.08,8.102,278.857,0,251,0s-55.08,8.102-80.912,24.078    c-24.049,14.875-45.806,35.86-64.667,62.374c-37.353,52.51-58.776,120.986-58.776,187.87c0,33.556,5.347,65.056,15.892,93.627    c10.137,27.465,24.844,51.669,43.714,71.938C143.537,479.941,194.943,502,251,502s107.463-22.059,144.749-62.112    c18.87-20.27,33.577-44.474,43.714-71.938c10.545-28.571,15.892-60.071,15.892-93.627    C455.355,207.438,433.932,138.962,396.579,86.452z M251,482c-106.822,0-184.355-87.341-184.355-207.678    c0-62.824,20.074-127.075,55.074-176.277C157.52,47.717,203.433,20,251,20s93.48,27.717,129.281,78.045    c35,49.202,55.074,113.453,55.074,176.277C435.355,394.659,357.822,482,251,482z"/>
		<path d="M250.721,150.7c-33.849,0-65.724,15.332-89.752,43.173c-23.466,27.188-36.389,62.685-36.389,99.95    c0,76.378,55.408,136.207,126.141,136.207c34.111,0,65.99-13.999,89.764-39.418c23.817-25.466,36.935-59.84,36.935-96.789    c0-37.238-13.03-72.743-36.689-99.975C316.556,166.023,284.59,150.7,250.721,150.7z M250.721,410.03    c-59.519,0-106.141-51.044-106.141-116.207c0-66.739,48.607-123.123,106.141-123.123c57.837,0,106.699,56.384,106.699,123.123    C357.42,358.986,310.552,410.03,250.721,410.03z"/>
		<path d="M250.819,196.148c-7.712,0-15.373,1.188-22.768,3.533c-5.265,1.669-8.18,7.289-6.511,12.554    c1.351,4.26,5.288,6.981,9.53,6.981c1.001,0,2.019-0.151,3.024-0.471c5.438-1.724,11.064-2.598,16.724-2.598    c5.523,0,10-4.478,10-10S256.342,196.148,250.819,196.148z"/>
		<path d="M197.167,231.382c-4.559-3.115-10.781-1.946-13.898,2.613c-11.531,16.874-17.881,37.69-17.881,58.616    c0,5.522,4.477,10,10,10s10-4.478,10-10c0-16.939,5.112-33.749,14.394-47.331C202.897,240.72,201.727,234.497,197.167,231.382z"/>
	</g>
</g>















</svg>
